<svg width="40" height="40" viewBox="0 0 40 40" fill="none" xmlns="http://www.w3.org/2000/svg">
<circle opacity="0.1" cx="20" cy="20" r="20" fill="#EA79BA"/>
<path d="M27.24 13.5801H26.84L23.46 10.2001C23.19 9.93006 22.75 9.93006 22.47 10.2001C22.2 10.4701 22.2 10.9101 22.47 11.1901L24.86 13.5801H15.14L17.53 11.1901C17.8 10.9201 17.8 10.4801 17.53 10.2001C17.26 9.93006 16.82 9.93006 16.54 10.2001L13.17 13.5801H12.77C11.87 13.5801 10 13.5801 10 16.1401C10 17.1101 10.2 17.7501 10.62 18.1701C10.86 18.4201 11.15 18.5501 11.46 18.6201C11.75 18.6901 12.06 18.7001 12.36 18.7001H27.64C27.95 18.7001 28.24 18.6801 28.52 18.6201C29.36 18.4201 30 17.8201 30 16.1401C30 13.5801 28.13 13.5801 27.24 13.5801Z" fill="#EA79BA"/>
<path d="M27.05 20H12.87C12.25 20 11.78 20.55 11.88 21.16L12.72 26.3C13 28.02 13.75 30 17.08 30H22.69C26.06 30 26.66 28.31 27.02 26.42L28.03 21.19C28.15 20.57 27.68 20 27.05 20ZM18.61 26.45C18.61 26.84 18.3 27.15 17.92 27.15C17.53 27.15 17.22 26.84 17.22 26.45V23.15C17.22 22.77 17.53 22.45 17.92 22.45C18.3 22.45 18.61 22.77 18.61 23.15V26.45ZM22.89 26.45C22.89 26.84 22.58 27.15 22.19 27.15C21.81 27.15 21.49 26.84 21.49 26.45V23.15C21.49 22.77 21.81 22.45 22.19 22.45C22.58 22.45 22.89 22.77 22.89 23.15V26.45Z" fill="#EA79BA"/>
</svg>
